<svg xmlns="http://www.w3.org/2000/svg" width="3300" height="1900" viewBox="0 0 3300 1900"><defs><marker id="arrow" markerWidth="10" markerHeight="10" refX="9" refY="3" orient="auto" markerUnits="strokeWidth"><path d="M0,0 L9,3 L0,6 Z" fill="#334155" /></marker><marker id="openarrow" markerWidth="10" markerHeight="10" refX="9" refY="3" orient="auto" markerUnits="strokeWidth"><path d="M0,0 L9,3 L0,6" fill="none" stroke="#334155" stroke-width="1.2" /></marker><style>
      .bpmn-node-hotspot{fill:transparent;stroke:transparent;stroke-width:3;cursor:pointer;pointer-events:all;transition:fill .12s ease,stroke .12s ease}
      .bpmn-node-hotspot:hover,.bpmn-node-hotspot:focus{fill:rgba(49,95,121,.08);stroke:#315f79;outline:none}
      .bpmn-node-hotspot.is-selected{fill:rgba(49,95,121,.12);stroke:#173d52;stroke-width:4}
    </style></defs><rect width="3300" height="1900" fill="#fff" /><text font-family="Arial, sans-serif" font-size="23" font-weight="700" text-anchor="start" fill="#0F2A3D"><tspan x="80" y="55.82">D1 - Claim Establishment, Orientation &amp; Activation</tspan></text><text font-family="Arial, sans-serif" font-size="12.5" font-weight="normal" text-anchor="start" fill="#5F6B7A"><tspan x="80" y="81.25">Detailed BPMN 2.0 decomposition of the front door and immediate-needs path</tspan></text><rect x="80" y="150" width="3140" height="1260" fill="#fff" stroke="#334155" stroke-width="2.5" /><rect x="80" y="150" width="3140" height="360" fill="#F8FAFC" stroke="#334155" stroke-width="1" /><rect x="80" y="150" width="170" height="360" fill="#fff" stroke="#334155" stroke-width="1" /><g transform="translate(162,330.0) rotate(-90)"><text font-family="Arial, sans-serif" font-size="13.2" font-weight="700" text-anchor="middle" fill="#355C7D"><tspan x="0" y="4.488">Claims Orchestration &amp; Claim State</tspan></text></g><rect x="80" y="510" width="3140" height="300" fill="#FFFFFF" stroke="#334155" stroke-width="1" /><rect x="80" y="510" width="170" height="300" fill="#fff" stroke="#334155" stroke-width="1" /><g transform="translate(162,660.0) rotate(-90)"><text font-family="Arial, sans-serif" font-size="13.2" font-weight="700" text-anchor="middle" fill="#4F7A3A"><tspan x="0" y="4.488">Fulfilment &amp; External Ecosystem</tspan></text></g><rect x="80" y="810" width="3140" height="300" fill="#F8FAFC" stroke="#334155" stroke-width="1" /><rect x="80" y="810" width="170" height="300" fill="#fff" stroke="#334155" stroke-width="1" /><g transform="translate(162,960.0) rotate(-90)"><text font-family="Arial, sans-serif" font-size="13.2" font-weight="700" text-anchor="middle" fill="#2B6E77"><tspan x="0" y="4.488">Customer Communication &amp; Support</tspan></text></g><rect x="80" y="1110" width="3140" height="300" fill="#FFFFFF" stroke="#334155" stroke-width="1" /><rect x="80" y="1110" width="170" height="300" fill="#fff" stroke="#334155" stroke-width="1" /><g transform="translate(162,1260.0) rotate(-90)"><text font-family="Arial, sans-serif" font-size="13.2" font-weight="700" text-anchor="middle" fill="#9B2F2F"><tspan x="0" y="4.488">Regulatory / Risk / Control Services</tspan></text></g><circle cx="310" cy="280" r="22" fill="#fff" stroke="#355C7D" stroke-width="2" /><path d="M 300 273 H 320 V 287 H 300 Z M 300 273 L 310 281 L 320 273" fill="none" stroke="#355C7D" stroke-width="1.4" /><text font-family="Arial, sans-serif" font-size="11.5" font-weight="600" text-anchor="middle" fill="#17202A"><tspan x="310" y="321.91">Claim notification</tspan></text><rect x="480" y="230" width="180" height="100" rx="10" ry="10" fill="#FFFFFF" stroke="#355C7D" stroke-width="2.3" /><circle cx="498" cy="252" r="7" fill="none" stroke="#355C7D" stroke-width="1.4" /><path d="M 498 242 V 245 M 498 259 V 262 M 488 252 H 491 M 505 252 H 508" stroke="#355C7D" stroke-width="1.4" /><text font-family="Arial, sans-serif" font-size="13.5" font-weight="600" text-anchor="middle" fill="#17202A"><tspan x="570.0" y="278.625">Capture notification</tspan><tspan x="570.0" y="294.555">&amp; provenance</tspan></text><text font-family="Arial, sans-serif" font-size="9.5" font-weight="700" text-anchor="start" fill="#355C7D"><tspan x="487" y="245.23">1.1.1</tspan></text><rect x="740" y="230" width="180" height="100" rx="10" ry="10" fill="#FFFFFF" stroke="#355C7D" stroke-width="2.3" /><circle cx="758" cy="252" r="7" fill="none" stroke="#355C7D" stroke-width="1.4" /><path d="M 758 242 V 245 M 758 259 V 262 M 748 252 H 751 M 765 252 H 768" stroke="#355C7D" stroke-width="1.4" /><text font-family="Arial, sans-serif" font-size="13.5" font-weight="600" text-anchor="middle" fill="#17202A"><tspan x="830.0" y="278.625">Resolve customer /</tspan><tspan x="830.0" y="294.555">representative / policy</tspan></text><text font-family="Arial, sans-serif" font-size="9.5" font-weight="700" text-anchor="start" fill="#355C7D"><tspan x="747" y="245.23">1.1.2</tspan></text><rect x="1000" y="230" width="180" height="100" rx="10" ry="10" fill="#FFF7F7" stroke="#9B2F2F" stroke-width="2.3" /><rect x="1010" y="244" width="16" height="16" fill="none" stroke="#9B2F2F" stroke-width="1.4" /><path d="M 1012 249 H 1024 M 1012 254 H 1024" stroke="#9B2F2F" stroke-width="1.2" /><text font-family="Arial, sans-serif" font-size="13.5" font-weight="600" text-anchor="middle" fill="#17202A"><tspan x="1090.0" y="278.625">Duplicate / existing</tspan><tspan x="1090.0" y="294.555">claim check</tspan></text><text font-family="Arial, sans-serif" font-size="9.5" font-weight="700" text-anchor="start" fill="#9B2F2F"><tspan x="1007" y="245.23">1.1.3</tspan></text><polygon points="1350,254 1376,280 1350,306 1324,280" fill="#fff" stroke="#355C7D" stroke-width="2.2" /><path d="M 1341 271 L 1359 289 M 1359 271 L 1341 289" stroke="#355C7D" stroke-width="2" /><text font-family="Arial, sans-serif" font-size="11" font-weight="600" text-anchor="middle" fill="#17202A"><tspan x="1350" y="328.74">Existing / reopened?</tspan></text><rect x="1510" y="230" width="200" height="100" rx="10" ry="10" fill="#FFFFFF" stroke="#355C7D" stroke-width="2.3" /><circle cx="1528" cy="252" r="7" fill="none" stroke="#355C7D" stroke-width="1.4" /><path d="M 1528 242 V 245 M 1528 259 V 262 M 1518 252 H 1521 M 1535 252 H 1538" stroke="#355C7D" stroke-width="1.4" /><text font-family="Arial, sans-serif" font-size="13.5" font-weight="600" text-anchor="middle" fill="#17202A"><tspan x="1610.0" y="278.625">Register / reopen claim</tspan><tspan x="1610.0" y="294.555">&amp; create case identity</tspan></text><text font-family="Arial, sans-serif" font-size="9.5" font-weight="700" text-anchor="start" fill="#355C7D"><tspan x="1517" y="245.23">1.1.4</tspan></text><rect x="1775" y="230" width="210" height="100" rx="10" ry="10" fill="#FFFFFF" stroke="#355C7D" stroke-width="2.3" /><circle cx="1793" cy="252" r="7" fill="none" stroke="#355C7D" stroke-width="1.4" /><path d="M 1793 242 V 245 M 1793 259 V 262 M 1783 252 H 1786 M 1800 252 H 1803" stroke="#355C7D" stroke-width="1.4" /><text font-family="Arial, sans-serif" font-size="13.5" font-weight="600" text-anchor="middle" fill="#17202A"><tspan x="1880.0" y="278.625">Initialise Claim State,</tspan><tspan x="1880.0" y="294.555">audit &amp; obligations</tspan></text><text font-family="Arial, sans-serif" font-size="9.5" font-weight="700" text-anchor="start" fill="#355C7D"><tspan x="1782" y="245.23">1.1.5</tspan></text><rect x="2055" y="230" width="210" height="100" rx="10" ry="10" fill="#FFFFFF" stroke="#355C7D" stroke-width="2.3" /><circle cx="2073" cy="252" r="7" fill="none" stroke="#355C7D" stroke-width="1.4" /><path d="M 2073 242 V 245 M 2073 259 V 262 M 2063 252 H 2066 M 2080 252 H 2083" stroke="#355C7D" stroke-width="1.4" /><text font-family="Arial, sans-serif" font-size="13.5" font-weight="600" text-anchor="middle" fill="#17202A"><tspan x="2160.0" y="278.625">Normalise FNOL: facts,</tspan><tspan x="2160.0" y="294.555">evidence &amp; unknowns</tspan></text><text font-family="Arial, sans-serif" font-size="9.5" font-weight="700" text-anchor="start" fill="#355C7D"><tspan x="2062" y="245.23">1.2.1</tspan></text><rect x="2345" y="230" width="210" height="100" rx="10" ry="10" fill="#FFFFFF" stroke="#355C7D" stroke-width="2.3" /><circle cx="2363" cy="252" r="7" fill="none" stroke="#355C7D" stroke-width="1.4" /><path d="M 2363 242 V 245 M 2363 259 V 262 M 2353 252 H 2356 M 2370 252 H 2373" stroke="#355C7D" stroke-width="1.4" /><text font-family="Arial, sans-serif" font-size="13.5" font-weight="600" text-anchor="middle" fill="#17202A"><tspan x="2450.0" y="278.625">Assess safety, urgency,</tspan><tspan x="2450.0" y="294.555">vulnerability &amp; support</tspan></text><text font-family="Arial, sans-serif" font-size="9.5" font-weight="700" text-anchor="start" fill="#355C7D"><tspan x="2352" y="245.23">1.2.2</tspan></text><polygon points="2740,254 2766,280 2740,306 2714,280" fill="#fff" stroke="#355C7D" stroke-width="2.2" /><path d="M 2731 271 L 2749 289 M 2749 271 L 2731 289" stroke="#355C7D" stroke-width="2" /><text font-family="Arial, sans-serif" font-size="11" font-weight="600" text-anchor="middle" fill="#17202A"><tspan x="2740" y="328.74">Immediate action?</tspan></text><polyline points="332,280 480,280" fill="none" stroke="#334155" stroke-width="2.0" marker-end="url(#arrow)" /><polyline points="660,280 740,280" fill="none" stroke="#334155" stroke-width="2.0" marker-end="url(#arrow)" /><polyline points="920,280 1000,280" fill="none" stroke="#334155" stroke-width="2.0" marker-end="url(#arrow)" /><polyline points="1180,280 1324,280" fill="none" stroke="#334155" stroke-width="2.0" marker-end="url(#arrow)" /><polyline points="1440,280 1520,280" fill="none" stroke="#334155" stroke-width="2.0" marker-end="url(#arrow)" /><polyline points="1700,280 1790,280" fill="none" stroke="#334155" stroke-width="2.0" marker-end="url(#arrow)" /><polyline points="1970,280 2070,280" fill="none" stroke="#334155" stroke-width="2.0" marker-end="url(#arrow)" /><polyline points="2250,280 2360,280" fill="none" stroke="#334155" stroke-width="2.0" marker-end="url(#arrow)" /><polyline points="2540,280 2714,280" fill="none" stroke="#334155" stroke-width="2.0" marker-end="url(#arrow)" /><rect x="2580" y="580" width="250" height="100" rx="10" ry="10" fill="#F7FBF5" stroke="#4F7A3A" stroke-width="2.3" /><circle cx="2598" cy="602" r="7" fill="none" stroke="#4F7A3A" stroke-width="1.4" /><path d="M 2598 592 V 595 M 2598 609 V 612 M 2588 602 H 2591 M 2605 602 H 2608" stroke="#4F7A3A" stroke-width="1.4" /><text font-family="Arial, sans-serif" font-size="13.5" font-weight="600" text-anchor="middle" fill="#17202A"><tspan x="2705.0" y="628.625">Provide urgent / emergency</tspan><tspan x="2705.0" y="644.555">assistance or advance</tspan></text><text font-family="Arial, sans-serif" font-size="9.5" font-weight="700" text-anchor="start" fill="#4F7A3A"><tspan x="2587" y="595.23">4.1.1</tspan></text><polyline points="2740,306 2740,580 2705,580" fill="none" stroke="#4F7A3A" stroke-width="2.0" marker-end="url(#arrow)" /><rect x="2757" y="437" width="40" height="18" fill="#fff" opacity="0.95" /><text font-family="Arial, sans-serif" font-size="10.5" font-weight="600" text-anchor="start" fill="#4F7A3A"><tspan x="2760" y="453.57">Yes</tspan></text><polyline points="2830,630 2950,630 2950,280 3030,280" fill="none" stroke="#4F7A3A" stroke-width="2.0" marker-end="url(#arrow)" /><rect x="2957" y="599" width="97.5" height="18" fill="#fff" opacity="0.95" /><text font-family="Arial, sans-serif" font-size="10.5" font-weight="600" text-anchor="start" fill="#4F7A3A"><tspan x="2960" y="615.57">Result recorded</tspan></text><circle cx="3060" cy="280" r="22" fill="#fff" stroke="#355C7D" stroke-width="5" /><text font-family="Arial, sans-serif" font-size="11.5" font-weight="600" text-anchor="middle" fill="#17202A"><tspan x="3060" y="321.91">Activated</tspan></text><polyline points="2766,280 3038,280" fill="none" stroke="#334155" stroke-width="2.0" marker-end="url(#arrow)" /><rect x="2857" y="257" width="84.5" height="18" fill="#fff" opacity="0.95" /><text font-family="Arial, sans-serif" font-size="10.5" font-weight="600" text-anchor="start" fill="#334155"><tspan x="2860" y="273.57">No / continue</tspan></text><rect x="1780" y="875" width="250" height="100" rx="10" ry="10" fill="#F5FAFB" stroke="#2B6E77" stroke-width="2.3" /><path d="M 1788 890 H 1808 V 904 H 1788 Z M 1788 890 L 1798 898 L 1808 890" fill="none" stroke="#2B6E77" stroke-width="1.4" /><text font-family="Arial, sans-serif" font-size="13.5" font-weight="600" text-anchor="middle" fill="#17202A"><tspan x="1905.0" y="923.625">Acknowledge claim &amp; explain</tspan><tspan x="1905.0" y="939.555">process / excess / next steps</tspan></text><text font-family="Arial, sans-serif" font-size="9.5" font-weight="700" text-anchor="start" fill="#2B6E77"><tspan x="1787" y="890.23">5.1.1</tspan></text><rect x="2070" y="875" width="250" height="100" rx="10" ry="10" fill="#F5FAFB" stroke="#2B6E77" stroke-width="2.3" /><path d="M 2078 890 H 2098 V 904 H 2078 Z M 2078 890 L 2088 898 L 2098 890" fill="none" stroke="#2B6E77" stroke-width="1.4" /><text font-family="Arial, sans-serif" font-size="13.5" font-weight="600" text-anchor="middle" fill="#17202A"><tspan x="2195.0" y="923.625">Confirm preferred channel</tspan><tspan x="2195.0" y="939.555">&amp; accessibility needs</tspan></text><text font-family="Arial, sans-serif" font-size="9.5" font-weight="700" text-anchor="start" fill="#2B6E77"><tspan x="2077" y="890.23">5.1.2</tspan></text><polyline points="1985,330 1985,875" fill="none" stroke="#2B6E77" stroke-width="2.0" stroke-dasharray="5,5" /><rect x="1690" y="1175" width="250" height="100" rx="10" ry="10" fill="#FFF7F7" stroke="#9B2F2F" stroke-width="2.3" /><rect x="1700" y="1189" width="16" height="16" fill="none" stroke="#9B2F2F" stroke-width="1.4" /><path d="M 1702 1194 H 1714 M 1702 1199 H 1714" stroke="#9B2F2F" stroke-width="1.2" /><text font-family="Arial, sans-serif" font-size="13.5" font-weight="600" text-anchor="middle" fill="#17202A"><tspan x="1815.0" y="1223.625">Initialise GICOP / legal /</tspan><tspan x="1815.0" y="1239.555">policy clocks &amp; obligations</tspan></text><text font-family="Arial, sans-serif" font-size="9.5" font-weight="700" text-anchor="start" fill="#9B2F2F"><tspan x="1697" y="1190.23">6.1.1</tspan></text><rect x="1980" y="1175" width="250" height="100" rx="10" ry="10" fill="#FFF7F7" stroke="#9B2F2F" stroke-width="2.3" /><rect x="1990" y="1189" width="16" height="16" fill="none" stroke="#9B2F2F" stroke-width="1.4" /><path d="M 1992 1194 H 2004 M 1992 1199 H 2004" stroke="#9B2F2F" stroke-width="1.2" /><text font-family="Arial, sans-serif" font-size="13.5" font-weight="600" text-anchor="middle" fill="#17202A"><tspan x="2105.0" y="1223.625">Set authority, privacy,</tspan><tspan x="2105.0" y="1239.555">fairness &amp; audit controls</tspan></text><text font-family="Arial, sans-serif" font-size="9.5" font-weight="700" text-anchor="start" fill="#9B2F2F"><tspan x="1987" y="1190.23">6.1.2</tspan></text><polyline points="1985,330 1985,1175" fill="none" stroke="#9B2F2F" stroke-width="2.0" stroke-dasharray="5,5" /><g id="interaction-layer"><rect class="bpmn-node-hotspot" x="480.0" y="230.0" width="180.0" height="100.0" rx="10" ry="10" data-node-id="1.1.1" data-node-label="Capture notification&amp; provenance" tabindex="0" role="button" aria-label="1.1.1 Capture notification&amp; provenance"><title>1.1.1 - Capture notification&amp; provenance</title></rect><rect class="bpmn-node-hotspot" x="740.0" y="230.0" width="180.0" height="100.0" rx="10" ry="10" data-node-id="1.1.2" data-node-label="Resolve customer /representative / policy" tabindex="0" role="button" aria-label="1.1.2 Resolve customer /representative / policy"><title>1.1.2 - Resolve customer /representative / policy</title></rect><rect class="bpmn-node-hotspot" x="1000.0" y="230.0" width="180.0" height="100.0" rx="10" ry="10" data-node-id="1.1.3" data-node-label="Duplicate / existingclaim check" tabindex="0" role="button" aria-label="1.1.3 Duplicate / existingclaim check"><title>1.1.3 - Duplicate / existingclaim check</title></rect><rect class="bpmn-node-hotspot" x="1510.0" y="230.0" width="200.0" height="100.0" rx="10" ry="10" data-node-id="1.1.4" data-node-label="Register / reopen claim&amp; create case identity" tabindex="0" role="button" aria-label="1.1.4 Register / reopen claim&amp; create case identity"><title>1.1.4 - Register / reopen claim&amp; create case identity</title></rect><rect class="bpmn-node-hotspot" x="1775.0" y="230.0" width="210.0" height="100.0" rx="10" ry="10" data-node-id="1.1.5" data-node-label="Initialise Claim State,audit &amp; obligations" tabindex="0" role="button" aria-label="1.1.5 Initialise Claim State,audit &amp; obligations"><title>1.1.5 - Initialise Claim State,audit &amp; obligations</title></rect><rect class="bpmn-node-hotspot" x="2055.0" y="230.0" width="210.0" height="100.0" rx="10" ry="10" data-node-id="1.2.1" data-node-label="Normalise FNOL: facts,evidence &amp; unknowns" tabindex="0" role="button" aria-label="1.2.1 Normalise FNOL: facts,evidence &amp; unknowns"><title>1.2.1 - Normalise FNOL: facts,evidence &amp; unknowns</title></rect><rect class="bpmn-node-hotspot" x="2345.0" y="230.0" width="210.0" height="100.0" rx="10" ry="10" data-node-id="1.2.2" data-node-label="Assess safety, urgency,vulnerability &amp; support" tabindex="0" role="button" aria-label="1.2.2 Assess safety, urgency,vulnerability &amp; support"><title>1.2.2 - Assess safety, urgency,vulnerability &amp; support</title></rect><rect class="bpmn-node-hotspot" x="2580.0" y="580.0" width="250.0" height="100.0" rx="10" ry="10" data-node-id="4.1.1" data-node-label="Provide urgent / emergencyassistance or advance" tabindex="0" role="button" aria-label="4.1.1 Provide urgent / emergencyassistance or advance"><title>4.1.1 - Provide urgent / emergencyassistance or advance</title></rect><rect class="bpmn-node-hotspot" x="1780.0" y="875.0" width="250.0" height="100.0" rx="10" ry="10" data-node-id="5.1.1" data-node-label="Acknowledge claim &amp; explainprocess / excess / next steps" tabindex="0" role="button" aria-label="5.1.1 Acknowledge claim &amp; explainprocess / excess / next steps"><title>5.1.1 - Acknowledge claim &amp; explainprocess / excess / next steps</title></rect><rect class="bpmn-node-hotspot" x="2070.0" y="875.0" width="250.0" height="100.0" rx="10" ry="10" data-node-id="5.1.2" data-node-label="Confirm preferred channel&amp; accessibility needs" tabindex="0" role="button" aria-label="5.1.2 Confirm preferred channel&amp; accessibility needs"><title>5.1.2 - Confirm preferred channel&amp; accessibility needs</title></rect><rect class="bpmn-node-hotspot" x="1690.0" y="1175.0" width="250.0" height="100.0" rx="10" ry="10" data-node-id="6.1.1" data-node-label="Initialise GICOP / legal /policy clocks &amp; obligations" tabindex="0" role="button" aria-label="6.1.1 Initialise GICOP / legal /policy clocks &amp; obligations"><title>6.1.1 - Initialise GICOP / legal /policy clocks &amp; obligations</title></rect><rect class="bpmn-node-hotspot" x="1980.0" y="1175.0" width="250.0" height="100.0" rx="10" ry="10" data-node-id="6.1.2" data-node-label="Set authority, privacy,fairness &amp; audit controls" tabindex="0" role="button" aria-label="6.1.2 Set authority, privacy,fairness &amp; audit controls"><title>6.1.2 - Set authority, privacy,fairness &amp; audit controls</title></rect></g></svg>